/* XPM */
const char * center_xpm[] = {
"16 16 11 1",
" 	c None",
".	c #878787",
"+	c #000000",
"@	c #2D2D2D",
"#	c #2A2A2A",
"$	c #010101",
"%	c #FF2727",
"&	c #FF3232",
"*	c #FDA5A5",
"=	c #FF0000",
"-	c #FF3131",
" .            . ",
".+@ #      # @+.",
" @$++      ++$@ ",
"  +++      +++  ",
" #+++  %&  +++# ",
"     *====*     ",
"     ======     ",
"    -======-    ",
"    -======-    ",
"     ======     ",
"     *====*     ",
" #+++  %&  +++# ",
"  +++      +++  ",
" @$++      ++$@ ",
".+@ #      # @+.",
" .            . "};
