/* XPM */
const char * a06_xpm[] = {
"40 40 21 1",
" 	c None",
".	c #000000",
"+	c #030501",
"@	c #131512",
"#	c #222321",
"$	c #30322F",
"%	c #3D3F3C",
"&	c #444643",
"*	c #515350",
"=	c #555754",
"-	c #656764",
";	c #9FA19E",
">	c #A5A7A4",
",	c #AAACA9",
"'	c #C6C8C5",
")	c #CACCC9",
"!	c #CED0CC",
"~	c #D4D6D3",
"{	c #D6D8D5",
"]	c #E2E4E1",
"^	c #FEFFFC",
"++++++++++++++++++++++++++++++++++++++++",
"+^^^^^^^^^^^^^^^^^^^^^^^^^^^^^^^^^^^^^^+",
"+^^^^^^^^^^^^^^^^^^^^^^^^^^^^^^^^^^^^^^+",
"+^^^^^^^^^^^^^^^^^^^^^^^^^^^^^^^^^^^^^^+",
"+^^^^^^^^^^^^^^^^^^^^^^^^^^^^^^^^^^^^^^+",
"+^^^^^^^^^^^^^^^^^^^^^^^^^^^^^^^^^^^^^^+",
"+^^^^^^^^^^^^^^^^^^^^^^^^^^^^^^^^^^^^^^+",
"+^^^^^^^^^^^^^^^^^^^^^^^^^^^^^^^^^^^^^^+",
"+^^^^^^^^^^^^^^^^^^^^^^^^^^^^^^^^^^^^^^+",
"+^^^^^+^^^^^^^^^^^^^^^^^^^^^^^^^^^^^^^^+",
"+^^^^^^+^^^^^^^^^^^^^^^^^^^^^^^^^^^^^^^+",
"+^^^^^^^+^^^^^^^^^^^^^^^^^^^^^^^^^^^^^^+",
"+^^^^^^^^+^^^^^^^^^^^^^^^^^^^^^^^^^^^^^+",
"+^^^^^^^^^+^^^^^^^^^^^^^^^^^^^^^^^^^^^^+",
"+^^^^^^^^^^^^^^^^^^^^^^^^^^^^^^^^^^^^^^+",
"+^^^^^^^^^^^^)*@+@=)^^^^+=^^^^^=+^^^^^^+",
"+^^^^^^^^^^^;+%>'>%+;^^^+=^^^^^=+^^^^^^+",
"+^^^^^^^^^^~+*^^^^^*+{^^+=^^^^^=+^^^^^^+",
"+^^^^^^^^^^-+]^^^^^]+-^^+=^^^^^=+^^^^^^+",
"+^^^^^^^^^^#$^^^^^^^$#^^+=^^^^^=+^^^^^^+",
"+^^^^^^^^^^+*^^^^^^^*+^^+++++++++^^^^^^+",
"+^^^^^^^^^^+*^^^^^^^*+^^+&!!!!!&+^^^^^^+",
"+^^^^^^^^^^#$^^^^^^^$#^^+=^^^^^=+^^^^^^+",
"+^^^^^^^^^^-+]^^^^^]+-^^+=^^^^^=+^^^^^^+",
"+^^^^^^^^^^~+=^^^^^*+~^^+=^^^^^=+^^^^^^+",
"+^^^^^^^^^^^;+&,',%+;^^^+=^^^^^=+^^^^^^+",
"+^^^^^^^^^^^^'*@+@=)^^^^+=^^^^^=+^^^^^^+",
"+^^^^^^^^^^^^^^^^^^^^^^^^^^^^^^^^^^^^^^+",
"+^^^^^^^^^^^^^^^^^^^^^^^^^^^^^^^^^^^^^^+",
"+^^^^^^^^^^^^^^^^^^^^^^^^^^^^^^^^^^^^^^+",
"+^^^^^^^^^^^^^^^^^^^^^^^^^^^^^^^^^^^^^^+",
"+^^^^^^^^^^^^^^^^^^^^^^^^^^^^^^^^^^^^^^+",
"+^^^^^^^^^^^^^^^^^^^^^^^^^^^^^^^^^^^^^^+",
"+^^^^^^^^^^^^^^^^^^^^^^^^^^^^^^^^^^^^^^+",
"+^^^^^^^^^^^^^^^^^^^^^^^^^^^^^^^^^^^^^^+",
"+^^^^^^^^^^^^^^^^^^^^^^^^^^^^^^^^^^^^^^+",
"+^^^^^^^^^^^^^^^^^^^^^^^^^^^^^^^^^^^^^^+",
"+^^^^^^^^^^^^^^^^^^^^^^^^^^^^^^^^^^^^^^+",
"+^^^^^^^^^^^^^^^^^^^^^^^^^^^^^^^^^^^^^^+",
"++++++++++++++++++++++++++++++++++++++++"};
