/* XPM */
static char * frg02_test_xpm[] = {
"40 40 24 1",
" 	c None",
".	c #000000",
"+	c #FEFFFC",
"@	c #FEFFFD",
"#	c #FEFFFE",
"$	c #9EA09D",
"%	c #8D8F8C",
"&	c #C9CBC8",
"*	c #AAACA9",
"=	c #D4D6D3",
"-	c #E0E2DF",
";	c #2F312E",
">	c #3F403E",
",	c #5D5F5C",
"'	c #70726F",
")	c #252624",
"!	c #BABCB9",
"~	c #4A4B49",
"{	c #80827F",
"]	c #F4F6F3",
"^	c #151614",
"/	c #0B0D09",
"(	c #EBEEEA",
"_	c #FFFFFF",
"........................................",
".++++++++++++++++++++++++++++++++++++++.",
".++++++++++++++++++++++++++++++++++++++.",
".++++++++++++++++++++++++++++++++++++++.",
".++++++++++++++++++++++++++++++++++++++.",
".++++++++++++++++++++++++++++++++++++++.",
".++++++++++++++++++++++++++++++++++++++.",
".++++++++++++++++++++++++++++++++++++++.",
".++++++++++++++++++++++++++++++++++++++.",
".++++++++++++++++++++++++++++++++++++++.",
".++++++++++++++++++++++++++++++++++++++.",
".++++++++++++++++++++++++++++++++++++++.",
".++++++++++++++++++++++++++++++++++++++.",
".++++@##@++++++++++++++++++++++++++++++.",
".++$%&++*=++-*++++++++$%&++*=++-*++++++.",
".-;%*>%+.=++&.++++++-;%*>%+.=++&.++++++.",
".,*+++'+.=++&.++++++,*+++'+.=++&.++++++.",
".)++++++......++++++)++++++......++++++.",
".)++++++.===!.++++++)++++++.===!.++++++.",
".,*+++>+.=++=.+*).;!,*+++>+.=++=.+*).;!.",
".=)$!~{+.=++=.+,-]*^=)$!~{+.=++=.+,-]*^.",
".+-%{!++&+++-&+++]*;+-%{!++&+++-&+++]*;.",
".+++++++++++++++..^=+++++++++++++++..^=.",
".++++++++++++++++]{>++++++++++++++++]{>.",
".+++++++++++++++++]/+++++++++++++++++]/.",
".++++++++++++++'(({;++++++++++++++'(({;.",
".++++++++++++++$^/>=++++++++++++++$^/>=.",
".++++++++++++___________________+++++++.",
".++++++++++++++++++++++++++++++++++++++.",
".++++++++++++++++++++++++++++++++++++++.",
".++++++++++++++++++++++++++++++++++++++.",
".++++++++++++++++++++++++++++++++++++++.",
".++++++++++++++++++++++++++++++++++++++.",
".++++++++++++++++++++++++++++++++++++++.",
".++++++++++++++++++++++++++++++++++++++.",
".++++++++++++++++++++++++++++++++++++++.",
".++++++++++++++++++++++++++++++++++++++.",
".++++++++++++++++++++++++++++++++++++++.",
".++++++++++++++++++++++++++++++++++++++.",
"........................................"};
