/* XPM */
const char * a08_xpm[] = {
"40 40 20 1",
" 	c #000000",
".	c #0B0B0B",
"+	c #121212",
"@	c #1C1C1C",
"#	c #212121",
"$	c #333333",
"%	c #424242",
"&	c #505050",
"*	c #5E5E5E",
"=	c #686868",
"-	c #727272",
";	c #878787",
">	c #949494",
",	c #A6A6A6",
"'	c #B5B5B5",
")	c #CBCBCB",
"!	c #D8D8D8",
"~	c #DFDFDF",
"{	c #E8E8E8",
"]	c #FFFFFF",
"                                        ",
" ]]]]]]]]]]]]]]]]]]]]]]]]]]]]]]]]]]]]]] ",
" ]]]]]]]]]]]]]]]]]]]]]]]]]]]]]]]]]]]]]] ",
" ]]]]]]]]]]]]]]]]]]]]]]]]]]]]]]]]]]]]]] ",
" ]]]]]]]]]]]]]]]]>%$=!]]]]]]]]]]]]]]]]] ",
" ]]]]]]]]]]]]]]]%&)!;+)]]]]]]]]]]]]]]]] ",
" ]]]]]]]]]]]]]],$]]]];%]]]]]]]]]]]]]]]] ",
" ]]]]]]]]]]]]]]*;]]]]{ ]]]]]]]]]]]]]]]] ",
" ]]]]]]]]]]]]]]%,]]]]] ~]]]]]]]]]]]]]]] ",
" ]]]]]]]]]]]]]]*;]]]]~ ]]]]]]]]]]]]]]]] ",
" ]]]]]]]]]]]]]],#]]]]-&]]]]]]]]]]]]]]]] ",
" ]]]]]]]]]]]]]]]*$,'=@~]]]]]]]]]]]]]]]] ",
" ]]]]]]]]]]]]]]]],*&;]]]]]]]]]]]]]]]]]] ",
" ]]]]]]]]]]]]]]]]]]]]]]]]]]]]]]]]]]]]]] ",
" ]]]]]]]]]]]]]]]]#]]#]]]]]]]]]]]]]]]]]] ",
" ]]]]]]]]]]]]]]]]#]]#]]]]]]]]]]]]]]]]]] ",
" ]]]]]]]]]]]]]]]]#]]#]]]]]]]]]]]]]]]]]] ",
" ]]]]]]]]]]]]]]]]#]]#]]]]]]]]]]]]]]]]]] ",
" ]]]]]]]]]]]]]]]]#]]#]]]]]]]]]]]]]]]]]] ",
" ]]]]]]]]]]]]]]]]#]]#]]]]]]]]]]]]]]]]]] ",
" ]]]]]]]]]]]]]]]]#]]#]]]]]]]]]]]]]]]]]] ",
" ]]]]]]]]]]]]]]]]#]]#]]]]]]]]]]]]]]]]]] ",
" ]]]]]]]]]]]]]]]]#]]#]]]]]]]]]]]]]]]]]] ",
" ]]]]]]]]]]]]]]]]#]]#]]]]]]]]]]]]]]]]]] ",
" ]]]]]]]]]]]]]]]]#%%#]]]]]]]]]]]]]]]]]] ",
" ]]]]]]]]]]]]]]]{%..%~]]]]]]]]]]]]]]]]] ",
" ]]]]]]]]]]]]]];.&!~&.-]]]]]]]]]]]]]]]] ",
" ]]]]]]]]]]]], $']]]])%+;]]]]]]]]]]]]]] ",
" ]]]]]]]]]])%+>]]]]]]]]'#@,]]]]]]]]]]]] ",
" ]]]]]]]]{=.=]]]]]]]]]]]]>@$']]]]]]]]]] ",
" ]]]]]]];+%!]]]]]]]]]]]]]]];.%)]]]]]]]] ",
" ]]]]]'##']]]]]]]]]]]]]]]]]]{=.*~]]]]]] ",
" ]]]!%.;]]]]]]]]]]]]]]]]]]]]]]!&.-]]]]] ",
" ]],.*{]]]]]]]]]]]]]]]]]]]]]]]]])%+]]]] ",
" ]]~)]]]]]]]]]]]]]]]]]]]]]]]]]]]]]!]]]] ",
" ]]]]]]]]]]]]]]]]]]]]]]]]]]]]]]]]]]]]]] ",
" ]]]]]]]]]]]]]]]]]]]]]]]]]]]]]]]]]]]]]] ",
" ]]]]]]]]]]]]]]]]]]]]]]]]]]]]]]]]]]]]]] ",
" ]]]]]]]]]]]]]]]]]]]]]]]]]]]]]]]]]]]]]] ",
"                                        "};

