/* XPM */
const char * a04_xpm[] = {
"40 40 20 1",
" 	c #000000",
".	c #0E0E0E",
"+	c #272727",
"@	c #2F2F2F",
"#	c #363636",
"$	c #484848",
"%	c #5F5F5F",
"&	c #727272",
"*	c #7C7C7C",
"=	c #848484",
"-	c #8F8F8F",
";	c #9F9F9F",
">	c #A6A6A6",
",	c #ADADAD",
"'	c #BABABA",
")	c #C8C8C8",
"!	c #D8D8D8",
"~	c #E2E2E2",
"{	c #F0F0F0",
"]	c #FFFFFF",
"                                        ",
" ]]]]]]]]]]]]]]]]]]]]]]]]]]]]]]]]]]]]]] ",
" ]]]]]]]]]]]]]]]]]]]]]]]]]]]]]]]]]]]]]] ",
" ]]]]]]]]]]]]]]]]]]]]]]]]]]]]]]]]]]]]]] ",
" ]]]]]]]]]]]]]]]]]]]]]]]]]]]]]]]]]]]]]] ",
" ]]]]]]]]]]]]]]]]]]]]]]]]]]]]]]]]]]]]]] ",
" ]]]]]]]]]]]]]]]]]]]]]]]]]]]]]]]]]]]]]] ",
" ]]]]]]]]]]]]]]]]]]]]]]]]]]]]]]]]]]]]]] ",
" ]]]]]]]]]]]]]]]]]]]]]]]]]]]]]]]]]]]]]] ",
" ]]]]]]]]]]]]]]]]]]]]]]]]]]]]]]]]]]]]]] ",
" ]]]]]]]]]]]]]]]]]]]]]]]]]]]]]]]]]] ]]] ",
" ]] ]]]]]]]]]]]]]]]]]]]]]]]]]]]]]] ]]]] ",
" ]]] ]]]]]]]]]]]]]]]]]]]]]]]]]]]] ]]]]] ",
" ]]]] ]]]]]]]]]]]]]]]]]]]]]]]]]] ]]]]]] ",
" ]]]]] ]]]]]]]]]]]]]]]]]]]]]]]]]]]]]]]] ",
" ]]]]]]]]]]]]]]]]]]]]]]]]]]]]]]]]]]]]]] ",
" ]]]]]]]{>-)]]]]]]]]]]]]]]]{>-)]]]]]]]] ",
" ]]]]]]~@-,$-]]]]]]]]]]]]]~@-,$-]]]]]]] ",
" ]]]]]]%>]]{&]$#########&]%>]]{&]]]]]]] ",
" ]]]]]]+{]]]]]]]]]]]]]]]]]+{]]]]]]]]]]] ",
" ]]]]]]+{]]]]]...........]+{]]]]]]]]]]] ",
" ]]]]]]%,]]{#]]]]]]]]]]]]]%,]]{#]]]]]]] ",
" ]]]]]]!+;'$=]]]]]]]]]]]]]!+;'$=]]]]]]] ",
" ]]]]]]]~-*']]]]]]]]]]]]]]]~-*']]]]]]]] ",
" ]]]]]]]]]]]]]]]]]]]]]]]]]]]]]]]]]]]]]] ",
" ]]]]]] ]]]]]]]]]]]]]]]]]]]]]]]] ]]]]]] ",
" ]]]]] ]]]]]]]]]]]]]]]]]]]]]]]]]] ]]]]] ",
" ]]]] ]]]]]]]]]]]]]]]]]]]]]]]]]]]] ]]]] ",
" ]]] ]]]]]]]]]]]]]]]]]]]]]]]]]]]]]] ]]] ",
" ]] ]]]]]]]]]]]]]]]]]]]]]]]]]]]]]]]] ]] ",
" ]]]]]]]]]]]]]]]]]]]]]]]]]]]]]]]]]]]]]] ",
" ]]]]]]]]]]]]]]]]]]]]]]]]]]]]]]]]]]]]]] ",
" ]]]]]]]]]]]]]]]]]]]]]]]]]]]]]]]]]]]]]] ",
" ]]]]]]]]]]]]]]]]]]]]]]]]]]]]]]]]]]]]]] ",
" ]]]]]]]]]]]]]]]]]]]]]]]]]]]]]]]]]]]]]] ",
" ]]]]]]]]]]]]]]]]]]]]]]]]]]]]]]]]]]]]]] ",
" ]]]]]]]]]]]]]]]]]]]]]]]]]]]]]]]]]]]]]] ",
" ]]]]]]]]]]]]]]]]]]]]]]]]]]]]]]]]]]]]]] ",
" ]]]]]]]]]]]]]]]]]]]]]]]]]]]]]]]]]]]]]] ",
"                                        "};
