/* XPM */
const char * a02_xpm[] = {
"40 40 21 1",
" 	c None",
".	c #000000",
"+	c #272826",
"@	c #2C2D2B",
"#	c #30322F",
"$	c #494A48",
"%	c #565855",
"&	c #60625F",
"*	c #797A78",
"=	c #818280",
"-	c #8B8D8A",
";	c #A0A29F",
">	c #AAACA8",
",	c #B7B9B5",
"'	c #C9CBC8",
")	c #D6D8D5",
"!	c #E1E3E0",
"~	c #E7E9E6",
"{	c #F3F5F2",
"]	c #F9FCF8",
"^	c #FEFFFC",
"........................................",
".^^^^^^^^^^^^^^^^^^^^^^^^^^^^^^^^^^^^^^.",
".^^^^^^^^^^^^^^^^^^^^^^^^^^^^^^^^^^^^^^.",
".^^^^^^^^^^^^^^^^^^^^^^^^^^^^^^^^^^^^^^.",
".^^^^^^^^^^^^^^^^^^^^^^^^^^^^^^^^^^^^^^.",
".^^^^^^^^^^^^^^^^^^^^^^^^^^^^^^^^^^^^^^.",
".^^^^^^^^^^^^^^^^^^^^^^^^^^^^^^^^^^^^^^.",
".^^^^^^^^^^^^^^^^^^^^^^^^^^^^^^^^^^^^^^.",
".^^^^^^^^^^^^^^^^^^^^^^^^^^^^^^^^^^^^^^.",
".^^^^^^^^^^^^^^^^^^^^^^^^^^^^^^^^^^^^^^.",
".^^^^^^^^^^^^^^^^^^^^^^^^^^^^^^^^^^^^^^.",
".^^^^^^^^^^^^^^^^^^^^^^^^^^^^^^^^^^^^^^.",
".^^^^^^^^^^^^^^^^^^^^^^^^^^^^^^^^^^^^^^.",
".^^^^^^^^^^^^^^^^^^^^^^^^^^^^^^^^^^^^^^.",
".^^^^^^^^^^^^^^^^^^^^^^^^^^^^^^^^^^^^^^.",
".^^^^^^^^^^^^^^^^^^^^^^^^^^^^^^^^^^^^^^.",
".^^^^^^^^^^^^^^^^^^^^^^^^^^^^^^^^^^^^^^.",
".^^^^^^^^^^^^^^^^^^@@]^^^^^^^^^^^^^^^^^.",
".^^^^^^^^^^^^^^^]@>>'&>)]^^^^^^^^^^^^^^.",
".^^^^^^^^^^^^^^,@~^^^{=;#,^^^^^^^^^^^^^.",
".^^^^^^^^^^^^)$$)^^^^^{^)$%!^^^^^^^^^^^.",
".^^^^^^^^^^{*@,^^^^^^^^^^^>@={^^^^^^^^^.",
".^^^^^^^^^;+-]^^^^^^^^^^^^^{=+>^^^^^^^^.",
".^^^^^^^^$&~^^^^^^^^^^^^^^^^^!%%^^^^^^^.",
".^^^^^^^^{^^^^^^^^^^^^^^^^^^^^^{^^^^^^^.",
".^^^^^^^^^^^^^^^^^^^^^^^^^^^^^^^^^^^^^^.",
".^^^^^^^^^^^^^^^^^^^^^^^^^^^^^^^^^^^^^^.",
".^^^^^^^^^^^^^^^^^^^^^^^^^^^^^^^^^^^^^^.",
".^^^^^^^^^^^^^^^^^^^^^^^^^^^^^^^^^^^^^^.",
".^^^^^^^^^^^^^^^^^^^^^^^^^^^^^^^^^^^^^^.",
".^^^^^^^^^^^^^^^^^^^^^^^^^^^^^^^^^^^^^^.",
".^^^^^^^^^^^^^^^^^^^^^^^^^^^^^^^^^^^^^^.",
".^^^^^^^^^^^^^^^^^^^^^^^^^^^^^^^^^^^^^^.",
".^^^^^^^^^^^^^^^^^^^^^^^^^^^^^^^^^^^^^^.",
".^^^^^^^^^^^^^^^^^^^^^^^^^^^^^^^^^^^^^^.",
".^^^^^^^^^^^^^^^^^^^^^^^^^^^^^^^^^^^^^^.",
".^^^^^^^^^^^^^^^^^^^^^^^^^^^^^^^^^^^^^^.",
".^^^^^^^^^^^^^^^^^^^^^^^^^^^^^^^^^^^^^^.",
".^^^^^^^^^^^^^^^^^^^^^^^^^^^^^^^^^^^^^^.",
"........................................"};

