/* XPM */
const char * a00_xpm[] = {
"40 40 6 1",
" 	c None",
".	c #000000",
"+	c #FFFFFF",
"@	c #575757",
"#	c #464646",
"$	c #CFCFCF",
"........................................",
".++++++++++++++++++++++++++++++++++++++.",
".++++++++++++++++++++++++++++++++++++++.",
".++++++++++++++++++++++++++++++++++++++.",
".++++++++++++++++++++++++++++++++++++++.",
".++++++++++++++++++++++++++++++++++++++.",
".++++++++++++++++++++++++++++++++++++++.",
".++++++++++++++++++++++++++++++++++++++.",
".++++++++++++++++++++++++++++++++++++++.",
".++++++++++++++++++++++++++++++++++++++.",
".++++++++++++++++++++++++++++++++++++++.",
".++++++++++++++++++++++++++++++++++++++.",
".++++++++++++++++++++++++++++++++++++++.",
".++++++++++++++.@+++++@.+++++++++++++++.",
".++++++++++++++.@+++++@.+++++++++++++++.",
".++++++++++++++.@+++++@.+++++++++++++++.",
".++++++++++++++.@+++++@.+++++++++++++++.",
".++++++++++++++.@+++++@.+++++++++++++++.",
".++++++++++++++.........+++++++++++++++.",
".++++++++++++++.#$$$$$#.+++++++++++++++.",
".++++++++++++++.@+++++@.+++++++++++++++.",
".++++++++++++++.@+++++@.+++++++++++++++.",
".++++++++++++++.@+++++@.+++++++++++++++.",
".++++++++++++++.@+++++@.+++++++++++++++.",
".++++++++++++++.@+++++@.+++++++++++++++.",
".++++++++++++++++++++++++++++++++++++++.",
".++++++++++++++++++++++++++++++++++++++.",
".++++++++++++++++++++++++++++++++++++++.",
".++++++++++++++++++++++++++++++++++++++.",
".++++++++++++++++++++++++++++++++++++++.",
".++++++++++++++++++++++++++++++++++++++.",
".++++++++++++++++++++++++++++++++++++++.",
".++++++++++++++++++++++++++++++++++++++.",
".++++++++++++++++++++++++++++++++++++++.",
".++++++++++++++++++++++++++++++++++++++.",
".++++++++++++++++++++++++++++++++++++++.",
".++++++++++++++++++++++++++++++++++++++.",
".++++++++++++++++++++++++++++++++++++++.",
".++++++++++++++++++++++++++++++++++++++.",
"........................................"};

