/* XPM */
const char * a07_xpm[] = {
"40 40 21 1",
" 	c None",
".	c #000000",
"+	c #2E2F2D",
"@	c #3E403D",
"#	c #454744",
"$	c #60615F",
"%	c #939592",
"&	c #9C9D9A",
"*	c #A3A5A2",
"=	c #A8AAA7",
"-	c #B3B5B2",
";	c #BBBDBA",
">	c #C2C4C1",
",	c #D3D5D2",
"'	c #DDDFDC",
")	c #E4E6E3",
"!	c #E9EBE8",
"~	c #EFF1EE",
"{	c #F3F5F2",
"]	c #F8FAF7",
"^	c #FCFFFB",
"........................................",
".^^^^^^^^^^^^^^^^^^^^^^^^^^^^^^^^^^^^^^.",
".^^^^^^^^^^^^^^^^^^^^^^^^^^^^^^^^^^^^^^.",
".^^^^^^^^^^^^^^^^^^^^^^^^^^^^^^^^^^^^^^.",
".^^^^^^^^^^^^^^^^^^^^^^^^^^^^^^^^^^^^^^.",
".^^^^^^^^^^^^^^^^^^^^^^^^^^^^^^^^^^^^^^.",
".^^^^^^^^^^^^^^^^^^^^^^]..]^)~^^,^^^^^^.",
".^^^^^^^^^^^^^^^^^^^^^!.&%.~^.^^.^^^^^^.",
".^^^^^^^^^^^^^^^^^^^^^$;^^*$^.^^.^^^^^^.",
".^^^^^^^^^^^^^^^^^^^^^.)^^,.^....^^^^^^.",
".^^^^^^^^^^^^^^^^^^^^^$;^^=$^.]].^^^^^^.",
".^^^^^^^^^^^^^^^^^^^^^).**.~^.^^.^^^^^^.",
".^^^^^^^^^^^^^^^^^^^^^^&..{^'!^^^^^^^^^.",
".^^^^^^^^^^^^^^^^^^^^^$'^^^^^^^^^^^^^^^.",
".^^^^^^^^^^^^^^^^^^^^&.&^^^^^^^^^^^^^^^.",
".^^^^^^^^^^^^^^^^^^^^$>^^^^^^^^^^^^^^^^.",
".^^^^^^^^^^^^^^^^^^^>.^^^^^^^^^^^^^^^^^.",
".^^^^^^^^^^^^^^^^^^^.&^^^^^^^^^^^^^^^^^.",
".^^^^^^^^^^^^^^^^^^&$^^^^^^^^^^^^^^^^^^.",
".^^^^^^^^^^^^^^^^^~.{^^^^^^^^^^^^^^^^^^.",
".^^^^^~............$^^^^^^^^^^^^^^^^^^^.",
".^^^^^{----------*+$&^^^^^^^^^^^^^^^^^^.",
".^^^^^^^^^^^^^^^^&.^.^^^^^^^^^^^^^^^^^^.",
".^^^^^^^^^^^^^^^^^$.&&^^^^^^^^^^^^^^^^^.",
".^^^^^^^^^^^^^^^^^^.^.&^^^^^^^^^^^^^^^^.",
".^^^^^^^^^^^^^^^^^^&.^.^^^^^^^^^^^^^^^^.",
".^^^^^^^^^^^^^^^^^^^.^$.^^^^^^^^^^^^^^^.",
".^^^^^^^^^^^^^^^^^^^&.^$&^^^^^^^^^^^^^^.",
".^^^^^^^^^^^^^^^^^^^^&.^.^^^^^^^^^^^^^^.",
".^^^^^^^^^^^^^^^^^^^^^$)&^^^^^^^^^^^^^^.",
".^^^^^^^^^^^^^^^^^^^^^!$..,^^^^^^^^^^^^.",
".^^^^^^^^^^^^^^^^^^^^^.,^!@]^^^^^^^^^^^.",
".^^^^^^^^^^^^^^^^^^^^].^^^.,^^^^^^^^^^^.",
".^^^^^^^^^^^^^^^^^^^^].^^^.'^^^^^^^^^^^.",
".^^^^^^^^^^^^^^^^^^^^^$>^,#^^^^^^^^^^^^.",
".^^^^^^^^^^^^^^^^^^^^^~...)^^^^^^^^^^^^.",
".^^^^^^^^^^^^^^^^^^^^^^^^^^^^^^^^^^^^^^.",
".^^^^^^^^^^^^^^^^^^^^^^^^^^^^^^^^^^^^^^.",
".^^^^^^^^^^^^^^^^^^^^^^^^^^^^^^^^^^^^^^.",
"........................................"};

