/* XPM */
const char * a01_xpm[] = {
"40 40 21 1",
" 	c None",
".	c #000000",
"+	c #0B0D09",
"@	c #151614",
"#	c #252624",
"$	c #2F312E",
"%	c #3F403E",
"&	c #4A4B49",
"*	c #5D5F5C",
"=	c #70726F",
"-	c #80827F",
";	c #8D8F8C",
">	c #9EA09D",
",	c #AAACA9",
"'	c #BABCB9",
")	c #C9CBC8",
"!	c #D4D6D3",
"~	c #E0E2DF",
"{	c #EBEEEA",
"]	c #F4F6F3",
"^	c #FEFFFC",
"........................................",
".^^^^^^^^^^^^^^^^^^^^^^^^^^^^^^^^^^^^^^.",
".^^^^^^^^^^^^^^^^^^^^^^^^^^^^^^^^^^^^^^.",
".^^^^^^^^^^^^^^^^^^^^^^^^^^^^^^^^^^^^^^.",
".^^^^^^^^^^^^^^^^^^^^^^^^^^^^^^^^^^^^^^.",
".^^^^^^^^^^^^^^^^^^^^^^^^^^^^^^^^^^^^^^.",
".^^^^^^^^^^^^^^^^^^^^^^^^^^^^^^^^^^^^^^.",
".^^^^^^^^^^^^^^^^^^^^^^^^^^^^^^^^^^^^^^.",
".^^^^^^^^^^^^^^^^^^^^^^^^^^^^^^^^^^^^^^.",
".^^^^^^^^^^^^^^^^^^^^^^^^^^^^^^^^^^^^^^.",
".^^^^^^^^^^^^^^^^^^^^^^^^^^^^^^^^^^^^^^.",
".^^^^^^^^^^^^^^^^^^^^^^^^^^^^^^^^^^^^^^.",
".^^^^^^^^^^^^^^^^^^^^^^^^^^^^^^^^^^^^^^.",
".^^^^^^^^^^^^^^^^^^^^^^^^^^^^^^^^^^^^^^.",
".^^^^^^^^^^^^^^^^^^^^^^^^^^^^^^^^^^^^^^.",
".^^^^^^^^^^^^^^>;)^^,!^^~,^^^^^^^^^^^^^.",
".^^^^^^^^^^^^~$;,%;^.!^^).^^^^^^^^^^^^^.",
".^^^^^^^^^^^^*,^^^=^.!^^).^^^^^^^^^^^^^.",
".^^^^^^^#++)^#^^^^^^......^^^^^^^^^^^^^.",
".^^^^^^^^^^^^#^^^^^^.!!!'.^^^^^^^^^^^^^.",
".^^^^^^^^^^^^*,^^^%^.!^^!.^,#.$'^^^^^^^.",
".^^^^^^^^^^^^!#>'&-^.!^^!.^*~],@^^^^^^^.",
".^^^^^^^^^^^^^~;-'^^)^^^~)^^^],$^^^^^^^.",
".^^^^^^^^^^^^^^^^^^^^^^^^^^^..@!^^^^^^^.",
".^^^^^^^^^^^^^^^^^^^^^^^^^^^^]-%^^^^^^^.",
".^^^^^^^^^^^^^^^^^^^^^^^^^^^^^]+^^^^^^^.",
".^^^^^^^^^^^^^^^^^^^^^^^^^^={{-$^^^^^^^.",
".^^^^^^^^^^^^^^^^^^^^^^^^^^>@+%!^^^^^^^.",
".^^^^^^^^^^^^^^^^^^^^^^^^^^^^^^^^^^^^^^.",
".^^^^^^^^^^^^^^^^^^^^^^^^^^^^^^^^^^^^^^.",
".^^^^^^^^^^^^^^^^^^^^^^^^^^^^^^^^^^^^^^.",
".^^^^^^^^^^^^^^^^^^^^^^^^^^^^^^^^^^^^^^.",
".^^^^^^^^^^^^^^^^^^^^^^^^^^^^^^^^^^^^^^.",
".^^^^^^^^^^^^^^^^^^^^^^^^^^^^^^^^^^^^^^.",
".^^^^^^^^^^^^^^^^^^^^^^^^^^^^^^^^^^^^^^.",
".^^^^^^^^^^^^^^^^^^^^^^^^^^^^^^^^^^^^^^.",
".^^^^^^^^^^^^^^^^^^^^^^^^^^^^^^^^^^^^^^.",
".^^^^^^^^^^^^^^^^^^^^^^^^^^^^^^^^^^^^^^.",
".^^^^^^^^^^^^^^^^^^^^^^^^^^^^^^^^^^^^^^.",
"........................................"};

