/* XPM */
const char * a09_xpm[] = {
"40 40 21 1",
" 	c None",
".	c #000000",
"+	c #181917",
"@	c #252724",
"#	c #3F403E",
"$	c #6D6F6C",
"%	c #858784",
"&	c #8F918E",
"*	c #A9ABA8",
"=	c #AFB1AE",
"-	c #B6B8B5",
";	c #BCBEBA",
">	c #C7C9C5",
",	c #CDCFCC",
"'	c #D2D4D1",
")	c #DFE1DE",
"!	c #E4E6E3",
"~	c #EAECE9",
"{	c #F2F4F1",
"]	c #FAFCF8",
"^	c #FEFFFC",
"........................................",
".^^^^^^^^^^^^^^^^^^^^^^^^^^^^^^^^^^^^^^.",
".^^^^^^^^^^^^^^^^^^^^^^^^^^^^^^^^^^^^^^.",
".^^^^^^^^^^^^^^^^^^^^^^^^^^^^^^^^^^^^^^.",
".^^^^^^^^^^^^^^^^^^^^^^^^..]^^^^^^^^^^^.",
".^^^^^^^^^^^^^^^^^^^^^^{.%&#)^^^^^^^^^^.",
".^^^^^^^^^^^^^^^^^^^^^^.*^^>.^^^^^^^^^^.",
".^^^^^^^^^^^^^^^^^^^^^^.)^^^.^^^^^^^^^^.",
".^^^^^^^^^^^^^^^^^^^^^^.>^^~.^^^^^^^^^^.",
".^^^^^^^^^^^^^^^^^^^^^^,.~{.*^^^^^^^^^^.",
".^^^^^^^^^^^^^^^^^^^^^^^>..-^^^^^^^^^^^.",
".^^^^^^^^^^^^^^^^^^^^^^.]^^^^^^^^^^^^^^.",
".^^^^^^^^^^^^^^^^^^^^^*.^^^^^^^^^^^^^^^.",
".^^^^^^^^^^^^^^^^^^^^{.~^^^^^^^^^^^^^^^.",
".^^^^^^^^^^^^^^^^^^^^.&^^^^^^^^^^^^^^^^.",
".^^^^^^^^^^^^^^^^^^^).]^^^^^^^^^^^^^^^^.",
".^^^^^^^^^^^^^^^^^^^^^^^^^^^^^^^^^^^^^^.",
".^^^^^^^^^^^^^^^;.^^.'^^^^^^^^^^^^^^^^^.",
".^^^^^^^^^^^^^^^*+=^.>^^^^^^^^^^^^^^^^^.",
".^^^^^-........)*..~.>^^^^^^^^^^^^^^^^^.",
".^^^^^);;;;;;;;~*.;..>^^^^^^^^^^^^^^^^^.",
".^^^^^^^^^^^^^^^*.^$.>^^^^^^^^^^^^^^^^^.",
".^^^^^^^^^^^^^^^*.^{@>^^^^^^^^^^^^^^^^^.",
".^^^^^^^^^^^^^^^^^^^^^^^^^^^^^^^^^^^^^^.",
".^^^^^^^^^^^^^^^^^^^]#~^^^^^^^^^^^^^^^^.",
".^^^^^^^^^^^^^^^^^^^^*.^^^^^^^^^^^^^^^^.",
".^^^^^^^^^^^^^^^^^^^^^.,^^^^^^^^^^^^^^^.",
".^^^^^^^^^^^^^^^^^^^^^,.^^^^^^^^^^^^^^^.",
".^^^^^^^^^^^^^^^^^^^^^^!^^^^^^^^^^^^^^^.",
".^^^^^^^^^^^^^^^^^^^^^^^,..-^^^^^^^^^^^.",
".^^^^^^^^^^^^^^^^^^^^^^,.!~.=^^^^^^^^^^.",
".^^^^^^^^^^^^^^^^^^^^^^.>^^~.^^^^^^^^^^.",
".^^^^^^^^^^^^^^^^^^^^^^.)^^^.^^^^^^^^^^.",
".^^^^^^^^^^^^^^^^^^^^^^.*^^>.^^^^^^^^^^.",
".^^^^^^^^^^^^^^^^^^^^^^{.%&.)^^^^^^^^^^.",
".^^^^^^^^^^^^^^^^^^^^^^^]..]^^^^^^^^^^^.",
".^^^^^^^^^^^^^^^^^^^^^^^^^^^^^^^^^^^^^^.",
".^^^^^^^^^^^^^^^^^^^^^^^^^^^^^^^^^^^^^^.",
".^^^^^^^^^^^^^^^^^^^^^^^^^^^^^^^^^^^^^^.",
"........................................"};

