/* XPM */
const char * a17_xpm[] = {
"40 40 21 1",
" 	c None",
".	c #000000",
"+	c #212320",
"@	c #2D2F2C",
"#	c #383A37",
"$	c #464845",
"%	c #525451",
"&	c #5E605D",
"*	c #6D6F6C",
"=	c #7E807D",
"-	c #8A8C89",
";	c #929491",
">	c #A0A29F",
",	c #AEB0AD",
"'	c #BBBDBA",
")	c #C5C8C4",
"!	c #D2D4D1",
"~	c #DEE0DD",
"{	c #E7E9E6",
"]	c #F2F4F1",
"^	c #FEFFFC",
"........................................",
".^^^^^^^^^^^^^^^^^^^^^^^^^^^^^^^^^^^^^^.",
".^^^^^^^^^^^^^^^^^^^^^^^^^^^^^^^^^^^^^^.",
".^^^^^^^^^^^^^^^^^^^^^^^^^^^^^^^^^^^^^^.",
".^^^^^^^^^^^^^^^^^^{{^^^^^^^^^^^^^^^^^^.",
".^^^^^^^^^^^^^^^^{*++*~^^^^^^^^^^^^^^^^.",
".^^^^^^^^^^^^^^~*+-]];+&~^^^^^^^^^^^^^^.",
".^^^^^^^^^^^^~&+;]^^^^^>@&!^^^^^^^^^^^^.",
".^^^^^^^^^^!%@>^^^^^^^^^^>@%)^^^^^^^^^^.",
".^^^^^^^^)%@,^^^^^^^^^^^^^^,#$)^^^^^^^^.",
".^^^^^^~$#,^^^^^^^^^^^^^^^^^^'#$!^^^^^^.",
".^^^^^^==^^^^^^^^^^^^^^^^^^^^^^;*^^^^^^.",
".^^^^^^$!^^^^^^^^^^^^^^^^^^^^^^~#^^^^^^.",
".^^^^^^+^^^^^^^^^^^^^^^^^^^^^^^^+]^^^^^.",
".^^^^^)$^^^^^^^^^^^^^^^^^^^^^^^^%'^^^^^.",
".^^^^^;=^^^^^^^^^^^^^^^^^^^^^^^^--^^^^^.",
".^^^^^%'^^^^^^^^^^^^^^^^^^^^^^^^)$^^^^^.",
".^^^^^+]^^^^^^^^^^^^^^^^^^^^^^^^^+^^^^^.",
".^^^^{@^^^^^^^^^^^^^^^^^^^^^^^^^^#!^^^^.",
".^^^^,*^^^^^^^^^^^^^^^^^^^^^^^^^^=>^^^^.",
".^^^^*>^^^^^^^^^^^^^^^^^^^^^^^^^^,&^^^^.",
".^^^^#~^^^^^^^^^^^^^^^^^^^^^^^^^^{@^^^^.",
".^^^]+^^^^^^^^^^^^^^^^^^^^^^^^^^^^@{^^^.",
".^^^'%^^^^^^^^^^^^^^^^^^^^^^^^^^^^&,^^^.",
".^^^{+!^^^^^^^^^^^^^^^^^^^^^^^^^^~+~^^^.",
".^^^^'@]^^^^^^^^^^^^^^^^^^^^^^^^]@'^^^^.",
".^^^^^;$^^^^^^^^^^^^^^^^^^^^^^^^%-^^^^^.",
".^^^^^^&=^^^^^^^^^^^^^^^^^^^^^^-%^^^^^^.",
".^^^^^^]#,^^^^^^^^^^^^^^^^^^^^'@]^^^^^^.",
".^^^^^^^~+!^^^^^^^^^^^^^^^^^^~+!^^^^^^^.",
".^^^^^^^^'@]^^^^^^^^^^^^^^^^]@,^^^^^^^^.",
".^^^^^^^^^-%^^^^^^^^^^^^^^^^&=^^^^^^^^^.",
".^^^^^^^^^^&=^^^^^^^^^^^^^^-%^^^^^^^^^^.",
".^^^^^^^^^^]@,~~~~~~~~~~~~,@]^^^^^^^^^^.",
".^^^^^^^^^^^~##############!^^^^^^^^^^^.",
".^^^^^^^^^^^^^^^^^^^^^^^^^^^^^^^^^^^^^^.",
".^^^^^^^^^^^^^^^^^^^^^^^^^^^^^^^^^^^^^^.",
".^^^^^^^^^^^^^^^^^^^^^^^^^^^^^^^^^^^^^^.",
".^^^^^^^^^^^^^^^^^^^^^^^^^^^^^^^^^^^^^^.",
"........................................"};

