/* XPM */
const char * a10_xpm[] = {
"40 40 19 1",
" 	c None",
".	c #000000",
"+	c #515350",
"@	c #575956",
"#	c #616360",
"$	c #6C6D69",
"%	c #737572",
"&	c #787A77",
"*	c #7E807D",
"=	c #868885",
"-	c #8E908D",
";	c #949693",
">	c #9FA19E",
",	c #ADAFAC",
"'	c #B6B8B5",
")	c #C3C5C2",
"!	c #CDCFCC",
"~	c #E5E7E4",
"{	c #FFFFFF",
"........................................",
".{{{{{{{{{{{{{{{{{{{{{{{{{{{{{{{{{{{{{{.",
".{{{{{{{{{{{{{{{{)%@,#*{{{{{{{{{{{{{{{{.",
".{{{{{{{{{{{{{{{&&!{{{'+'{{{{{{{{{{{{{{.",
".{{{{{{{{{{{{{'@){{{{{{{=#~{{{{{{{{{{{{.",
".{{{{{{{{{{{>$={{{~%{{{{{~#%!{{{{{{{{{{.",
".{{{{{{{{{!->~{{)=#!{{{{{{{!&>{{{{{{{{{.",
".{{{{{{{{=$,{{~&&'{{{{{{{{{{{;+){{{{{{{.",
".{{{{{{)$'{{{,$){{{{{{{{{{{{{{{*%{{{{{{.",
".{{{{'%*~{{,$-{{{{{{{{{{{{{{{{{{!+;~{{{.",
".{{{'*){{!+;!{{{{{{{{{{{{{{{{{{{{{,${{{.",
".{{{.${{=${{{{{{{{{{{{{{{{{{{{{{{{{.{{{.",
".{{{.${{{{{{{{{{{{{{{{{{{{{{{{{{'{{.{{{.",
".{{{.${{{{{{{{{{{{{{{{{{{{{{{{{{.{{.{{{.",
".{{{.${{{{{{{{{{{{{{{{{{{{{{{{{{.{{.{{{.",
".{{{.${{{{{{{{{{{{{{{{{{{{{{{{{{.{{.{{{.",
".{{{.${{{{{{{{{{{{{{{{{{{{{{{{{{.{{.{{{.",
".{{{.${{{{{{{{{{{{{{{{{{{{{{{{{{.{{.{{{.",
".{{{.${{{{{{{{{{{{{{{{{{{{{{{{{{.{{.{{{.",
".{{{.${{{{{{{{{{{{{{{{{{{{{{{{{{.{{.{{{.",
".{{{.${{{{{{{{{{{{{{{{{{{{{{{{{{.{{.{{{.",
".{{{.${{{{{{{{{{{{{{{{{{{{{{{{{{.{{.{{{.",
".{{{.${{{{{{{{{{{{{{{{{{{{{{{{{{.{{.{{{.",
".{{{.${{{{{{{{{{{{{{{{{{{{{{{{{{.{{.{{{.",
".{{{.${{{{{{{{{{{{{{{{{{{{{{{{{{.{{.{{{.",
".{{{.${{{{{{{{{{{{{{{{{{{{{{{{{{.{{.{{{.",
".{{{.${{{{{{{{{{{{{{{{{{{{{{{{{{.{{.{{{.",
".{{{.${{=${{{{{{{{{{{{{{{{{{{{{{{{{.{{{.",
".{{{'*){{!+;!{{{{{{{{{{{{{{{{{{{{{,${{{.",
".{{{{'%*~{{,$-~{{{{{{{{{{{{{{{{{!+;~{{{.",
".{{{{{{)$'{{{,$){{{{{{{{{{{{{{{*%{{{{{{.",
".{{{{{{{{=$,{{{&&'{{{{{{{{{{{;+){{{{{{{.",
".{{{{{{{{{!-@~{{)=#!{{{{{{{>#>{{{{{{{{{.",
".{{{{{{{{{{{{$={{{~%{{{{{~#>{{{{{{{{{{{.",
".{{{{{{{{{{{{{'@){{{{{{{=#~{{{{{{{{{{{{.",
".{{{{{{{{{{{{{{{&&!{{{'+'{{{{{{{{{{{{{{.",
".{{{{{{{{{{{{{{{{)%@,#*{{{{{{{{{{{{{{{{.",
".{{{{{{{{{{{{{{{{{{{-{{{{{{{{{{{{{{{{{{.",
".{{{{{{{{{{{{{{{{{{{{{{{{{{{{{{{{{{{{{{.",
"........................................"};

