/* XPM */
const char * a13_xpm[] = {
"40 40 21 1",
" 	c None",
".	c #000000",
"+	c #0C0E0A",
"@	c #171916",
"#	c #242523",
"$	c #333432",
"%	c #3D3F3D",
"&	c #484A48",
"*	c #5B5D5A",
"=	c #6A6C69",
"-	c #737472",
";	c #858784",
">	c #8F918E",
",	c #9C9E9B",
"'	c #A9ABA8",
")	c #B3B5B2",
"!	c #C4C6C3",
"~	c #D6D8D4",
"{	c #E1E3DF",
"]	c #EAECE8",
"^	c #FDFFFC",
"........................................",
".^^^^^^^^^^^^^^^^^^^^^^^^^^^^^^^^^^^^^^.",
".^^^^^^^^^^^^^^^^^^^^^^^^^^^^^^^^^^^^^^.",
".^^^^^^^^^^^^^^^^^^^^^^^^^^^^^^^^^^^^^^.",
".^^^^^^^^^^^^^^^^^^^^^^^^^^^^^^^^^^^^^^.",
".^^^^^^^^^^^^^^^^^^^^^^^^^^^^^^^^^^^^^^.",
".^^^^^^^^^^^^^^^^^!+'^^^^^^^^^^^^^^^^^^.",
".^^^^^^^^^^^^^^^^^$.#]^^^^^^^^^^^^^^^^^.",
".^^^^^^^^^^^^^^^^>.@.;^^^^^^^^^^^^^^^^^.",
".^^^^^^^^^^^^^^^]++{@+{^^^^^^^^^^^^^^^^.",
".^^^^^^^^^^^^^^^=.>^'.*^^^^^^^^^^^^^^^^.",
".^^^^^^^^^^^^^^~.#^^^%.!^^^^^^^^^^^^^^^.",
".^^^^^^^^^^^^^^%.)^^^!.$^^^^^^^^^^^^^^^.",
".^^^^^^^^^^^^^'.&^^^^^*.,^^^^^^^^^^^^^^.",
".^^^^^^^^^^^^^#+~^^^^^]+@]^^^^^^^^^^^^^.",
".^^^^^^^^^^^^;.-^^^^^^^>.=^^^^^^^^^^^^^.",
".^^^^^^^^^^^{+@]^^^^^^^^#.~^^^^^^^^^^^^.",
".^^^^^^^^^^^*.,^^^^^^^^^).&^^^^^^^^^^^^.",
".^^^^^^^^^^!.$^^^^^^^^^^^&.)^^^^^^^^^^^.",
".^^^^^^^^^^$.!^^^^^^^^^^^~.#^^^^^^^^^^^.",
".^^^^^^^^^,.*^^^^^^^^^^^^^-.;^^^^^^^^^^.",
".^^^^^^^^]@+{^^^^^^^^^^^^^]@+{^^^^^^^^^.",
".^^^^^^^^-.;^^^^^^^^^^^^^^^,.*^^^^^^^^^.",
".^^^^^^^~.#^^^^^^^^^^^^^^^^^$.!^^^^^^^^.",
".^^^^^^^&.)^^^^^^^^^^^^^^^^^!.$^^^^^^^^.",
".^^^^^^).&^^^^^^^^^^^^^^^^^^^*.,^^^^^^^.",
".^^^^^^#.~^^^^^^^^^^^^^^^^^^^{+@]^^^^^^.",
".^^^^^;.-^^^^^^^^^^^^^^^^^^^^^;.-^^^^^^.",
".^^^^]+.*=====================*.+~^^^^^.",
".^^^^)...........................'^^^^^.",
".^^^^^{~~~~~~~~~~~~~~~~~~~~~~~~~~^^^^^^.",
".^^^^^^^^^^^^^^^^^^^^^^^^^^^^^^^^^^^^^^.",
".^^^^^^^^^^^^^^^^^^^^^^^^^^^^^^^^^^^^^^.",
".^^^^^^^^^^^^^^^^^^^^^^^^^^^^^^^^^^^^^^.",
".^^^^^^^^^^^^^^^^^^^^^^^^^^^^^^^^^^^^^^.",
".^^^^^^^^^^^^^^^^^^^^^^^^^^^^^^^^^^^^^^.",
".^^^^^^^^^^^^^^^^^^^^^^^^^^^^^^^^^^^^^^.",
".^^^^^^^^^^^^^^^^^^^^^^^^^^^^^^^^^^^^^^.",
".^^^^^^^^^^^^^^^^^^^^^^^^^^^^^^^^^^^^^^.",
"........................................"};

