/* XPM */
const char * a15_xpm[] = {
"40 40 21 1",
" 	c None",
".	c #000000",
"+	c #171816",
"@	c #222422",
"#	c #333432",
"$	c #3A3C39",
"%	c #474846",
"&	c #4F514E",
"*	c #60615F",
"=	c #6F716E",
"-	c #797B78",
";	c #8A8C89",
">	c #929491",
",	c #A3A5A1",
"'	c #ABADA9",
")	c #BABCB9",
"!	c #C8CAC7",
"~	c #D7D9D6",
"{	c #E2E5E1",
"]	c #EFF1ED",
"^	c #FDFFFC",
"........................................",
".^^^^^^^^^^^^^^^^^^^^^^^^^^^^^^^^^^^^^^.",
".^^^^^^^^^^^^^^^^^^^^^^^^^^^^^^^^^^^^^^.",
".^^^^^^^^^^^^^^^^^^^^^^^^^^^^^^^^^^^^^^.",
".^^^^^^^^^^^^^^^^^^^^^^^^^^^^^^^^^^^^^^.",
".^^^^^^^^^^^^^^^^^!#>^^^^^^^^^^^^^^^^^^.",
".^^^^^^^^^^^^^^^^;.&.%{^^^^^^^^^^^^^^^^.",
".^^^^^^^^^^^^^^{$+'^~#+)^^^^^^^^^^^^^^^.",
".^^^^^^^^^^^^^'+${^^^^-.=^^^^^^^^^^^^^^.",
".^^^^^^^^^^^]*.;^^^^^^^)+#~^^^^^^^^^^^^.",
".^^^^^^^^^^!@@!^^^^^^^^^]&.>^^^^^^^^^^^.",
".^^^^^^^^^;.*]^^^^^^^^^^^^>.&]^^^^^^^^^.",
".^^^^^^^{%.,^^^^^^^^^^^^^^^~#+)^^^^^^^^.",
".^^^^^^'+${^^^^^^^^^^^^^^^^^^=.-^^^^^^^.",
".^^^^]*.-^^^^^^^^^^^^^^^^^^^^^)+#~^^^^^.",
".^^^!@@!^^^^^^^^^^^^^^^^^^^^^^^{%.,^^^^.",
".^^].&]^^^^^^^^^^^^^^^^^^^^^^^^^^>.,^^^.",
".^^^@;^^^^^^^^^^^^^^^^^^^^^^^^^^^~.~^^^.",
".^^^-#^^^^^^^^^^^^^^^^^^^^^^^^^^^;@^^^^.",
".^^^!.~^^^^^^^^^^^^^^^^^^^^^^^^^^#-^^^^.",
".^^^^@;^^^^^^^^^^^^^^^^^^^^^^^^^~.~^^^^.",
".^^^^-#^^^^^^^^^^^^^^^^^^^^^^^^^;@^^^^^.",
".^^^^!.{^^^^^^^^^^^^^^^^^^^^^^^^#-^^^^^.",
".^^^^^@;^^^^^^^^^^^^^^^^^^^^^^^{.!^^^^^.",
".^^^^^=$^^^^^^^^^^^^^^^^^^^^^^^;@^^^^^^.",
".^^^^^!.{^^^^^^^^^^^^^^^^^^^^^^#-^^^^^^.",
".^^^^^^@>^^^^^^^^^^^^^^^^^^^^^{.!^^^^^^.",
".^^^^^^=$^^^^^^^^^^^^^^^^^^^^^;@^^^^^^^.",
".^^^^^^!.{^^^^^^^^^^^^^^^^^^^^$=^^^^^^^.",
".^^^^^^^+>^^^^^^^^^^^^^^^^^^^{.!^^^^^^^.",
".^^^^^^^=$^^^^^^^^^^^^^^^^^^^>@^^^^^^^^.",
".^^^^^^^).{^^^^^^^^^^^^^^^^^^$=^^^^^^^^.",
".^^^^^^^^+>^^^^^^^^^^^^^^^^^{.!^^^^^^^^.",
".^^^^^^^^=#;;;;;;;;;;;;;;;;;*+^^^^^^^^^.",
".^^^^^^^^!###################;^^^^^^^^^.",
".^^^^^^^^^^^^^^^^^^^^^^^^^^^^^^^^^^^^^^.",
".^^^^^^^^^^^^^^^^^^^^^^^^^^^^^^^^^^^^^^.",
".^^^^^^^^^^^^^^^^^^^^^^^^^^^^^^^^^^^^^^.",
".^^^^^^^^^^^^^^^^^^^^^^^^^^^^^^^^^^^^^^.",
"........................................"};
