/* XPM */
const char * a12_xpm[] = {
"40 40 21 1",
" 	c None",
".	c #000000",
"+	c #040702",
"@	c #0A0C08",
"#	c #171816",
"$	c #222321",
"%	c #282927",
"&	c #2B2D2A",
"*	c #3D3F3C",
"=	c #494A48",
"-	c #5B5D5A",
";	c #80827F",
">	c #858784",
",	c #AAACA9",
"'	c #B3B5B2",
")	c #BCBEBB",
"!	c #D3D5D2",
"~	c #DEE0DD",
"{	c #E4E6E3",
"]	c #F8FAF7",
"^	c #FEFFFC",
"++++++++++++++++++++++++++++++++++++++++",
"+^^^^^^^^^^^^^^^^^^^^^^^^^^^^^^^^^^^^^^+",
"+^^^^^^^^^^^^^^^^^^^^^^^^^^^^^^^^^^^^^^+",
"+^^^^^^^^^^^^^^^^^^^^^^^^^^^^^^^^^^^^^^+",
"+^^^^^^^^^^^^^^^^^^^^^^^^^^^^^^^^^^^^^^+",
"+^^^^^^^^^^^^^^^^^^^^^^^^^^^^^^^^^^^^^^+",
"+^^^^^^{~~~~~~~~~~~~~~~~~~~~~~~~]^^^^^^+",
"+^^^^^)+++++++++++++++++++++++++-^^^^^^+",
"+^^^^^,+-;;;;;;;;;;;;;;;;;;;;;;@=^^^^^^+",
"+^^^^^,+'^^^^^^^^^^^^^^^^^^^^^^#=^^^^^^+",
"+^^^^^,+'^^^^^^^^^^^^^^^^^^^^^^#=^^^^^^+",
"+^^^^^,+'^+^^^^^^^^^^^^^^^^^^+^#=^^^^^^+",
"+^^^^^,+'^+^^^^^^^^^^^^^^^^^^+^#=^^^^^^+",
"+^^^^^,+'^+^^^^^^^^^^^^^^^^^^+^#=^^^^^^+",
"+^^^^^,+'^+^^^^^^^^^^^^^^^^^^+^#=^^^^^^+",
"+^^^^^,+'^+^^^^^^^^^^^^^^^^^^+^#=^^^^^^+",
"+^^^^^,+'^+^^^^^^^^^^^^^^^^^^+^#=^^^^^^+",
"+^^^^^,+'^+^^^^^^^^^^^^^^^^^^+^#=^^^^^^+",
"+^^^^^,+'^+^^^^^^^^^^^^^^^^^^+^#=^^^^^^+",
"+^^^^^,+'^+^^^^^^^^^^^^^^^^^^+^#=^^^^^^+",
"+^^^^^,+'^+^^^^^^^^^^^^^^^^^^+^#=^^^^^^+",
"+^^^^^,+'^+^^^^^^^^^^^^^^^^^^+^#=^^^^^^+",
"+^^^^^,+'^+^^^^^^^^^^^^^^^^^^+^#=^^^^^^+",
"+^^^^^,+'^+^^^^^^^^^^^^^^^^^^+^#=^^^^^^+",
"+^^^^^,+'^+^^^^^^^^^^^^^^^^^^+^#=^^^^^^+",
"+^^^^^,+'^+^^^^^^^^^^^^^^^^^^+^#=^^^^^^+",
"+^^^^^,+'^+^^^^^^^^^^^^^^^^^^+^#=^^^^^^+",
"+^^^^^,+'^+^^^^^^^^^^^^^^^^^^+^#=^^^^^^+",
"+^^^^^,+'^+^^^^^^^^^^^^^^^^^^+^#=^^^^^^+",
"+^^^^^,+'^^^^^^^^^^^^^^^^^^^^^^#=^^^^^^+",
"+^^^^^,+'^^^^^^^^^^^^^^^^^^^^^^#=^^^^^^+",
"+^^^^^,+&**********************+=^^^^^^+",
"+^^^^^!%$$$$$$$$$$$$$$$$$$$$$$$$>^^^^^^+",
"+^^^^^^^^^^^^^^^^^^^^^^^^^^^^^^^^^^^^^^+",
"+^^^^^^^^^^^^^^^^^^^^^^^^^^^^^^^^^^^^^^+",
"+^^^^^^^^^^^^^^^^^^^^^^^^^^^^^^^^^^^^^^+",
"+^^^^^^^^^^^^^^^^^^^^^^^^^^^^^^^^^^^^^^+",
"+^^^^^^^^^^^^^^^^^^^^^^^^^^^^^^^^^^^^^^+",
"+^^^^^^^^^^^^^^^^^^^^^^^^^^^^^^^^^^^^^^+",
"++++++++++++++++++++++++++++++++++++++++"};

