/* XPM */
const char * a11_xpm[] = {
"40 40 21 1",
" 	c None",
".	c #000000",
"+	c #0F110D",
"@	c #191B19",
"#	c #272927",
"$	c #373936",
"%	c #444643",
"&	c #535552",
"*	c #666865",
"=	c #70726F",
"-	c #80827F",
";	c #90928F",
">	c #9B9D9A",
",	c #ACAEAB",
"'	c #BEC0BD",
")	c #C7C9C5",
"!	c #D3D5D2",
"~	c #E1E4E0",
"{	c #EAECE9",
"]	c #F3F5F2",
"^	c #FEFFFC",
"........................................",
".^^^^^^^^^^^^^^^^^^^^^^^^^^^^^^^^^^^^^^.",
".^^^^^^^^^^^^^^^^^^^^^^^^^^^^^^^^^^^^^^.",
".^^^^^^^^^^^^^^^^^^^.>^^^^^^^^^^^^^^^^^.",
".^^^^^^^^^^^^^^^^^]*.)^^^^^^^^^^^^^^^^^.",
".^^^^^^^^^^^^^^^^!#+^.*]^^^^^^^^^^^^^^^.",
".^^^^^^^^^^^^^^^>.$~^,+#!^^^^^^^^^^^^^^.",
".^^^^^^^^^^^^^]*.-^^^^~%.)^^^^^^^^^^^^^.",
".^^^^^^^^^^^^!#+'^^^^^^^-.*]^^^^^^^^^^^.",
".^^^^^^^^^^^>.$~^^^^^^^^^,+#!^^^^^^^^^^.",
".^^^^^^^^^{&.-^^^^^^^^^^^^~%.;^^^^^^^^^.",
".^^^^^^^^'@@'^^^^^^^^^^^^^^^-.%{^^^^^^^.",
".^^^^^^^-.&{^^^^^^^^^^^^^^^^^)#@'^^^^^^.",
".^^^^^~$.;^^^^^^^^^^^^^^^^^^^^{&.=^^^^^.",
".^^^^,+#!^^^^^^^^^^^^^^^^^^^^^^^>+$~^^^.",
".^^]*.*]^^^^^^^^^^^^^^^^^^^^^^^^^!$+,^^.",
".^^'.>^^^^^^^^^^^^^^^^^^^^^^^^^^^^]%@^^.",
".^^^+;^{;^^^^^^^^^^^^^^^^^^^^^^!,^^$*^^.",
".^^^*$^~.'^^^^^^^^^^^^^^^^^^^^^*$^~.,^^.",
".^^^,.~^$*^^^^^^^^^^^^^^^^^^^^^+;^;+]^^.",
".^^^]+;^-@^^^^^^^^^^^^^^^^^^^^'.~^%&^^^.",
".^^^^&%^!.'^^^^^^^^^^^^^^^^^^^*$^{.,^^^.",
".^^^^,.{^#*^^^^^^^^^^^^^^^^^^^@-^>+]^^^.",
".^^^^]+>^-@^^^^^^^^^^^^^^^^^^'.!^%&^^^^.",
".^^^^^&%^!.)^^^^^^^^^^^^^^^^^=#^{.,^^^^.",
".^^^^^,.{^#=^^^^^^^^^^^^^^^^^@-^>.]^^^^.",
".^^^^^].>^-@^^^^^^^^^^^^^^^^).!^%&^^^^^.",
".^^^^^^&&^!.)^^^^^^^^^^^^^^^=#^].>^^^^^.",
".^^^^^^>.]^#=^^^^^^^^^^^^^^^#=^,.{^^^^^.",
".^^^^^^{.,^=#^^^^^^^^^^^^^^!.)^&%^^^^^^.",
".^^^^^^^%&^).!^^^^^^^^^^^^^-@^].>^^^^^^.",
".^^^^^^^>+]^%'^^^^^^^^^^^^^--^,.{^^^^^^.",
".^^^^^^^{.,^^^^^^^^^^^^^^^^^^^&%^^^^^^^.",
".^^^^^^^^%&^^^^^^^^^^^^^^^^^^]+;^^^^^^^.",
".^^^^^^^^;+******************&.~^^^^^^^.",
".^^^^^^^^{%%%%%%%%%%%%%%%%%%%%=^^^^^^^^.",
".^^^^^^^^^^^^^^^^^^^^^^^^^^^^^^^^^^^^^^.",
".^^^^^^^^^^^^^^^^^^^^^^^^^^^^^^^^^^^^^^.",
".^^^^^^^^^^^^^^^^^^^^^^^^^^^^^^^^^^^^^^.",
"........................................"};

