/* XPM */
const char * a18_xpm[] = {
"40 40 21 1",
" 	c None",
".	c #000000",
"+	c #2C2D2B",
"@	c #393B38",
"#	c #3B3D3A",
"$	c #4F504E",
"%	c #565855",
"&	c #91928F",
"*	c #929491",
"=	c #939592",
"-	c #949693",
";	c #A2A4A1",
">	c #A3A5A2",
",	c #BBBDBA",
"'	c #BCBEBB",
")	c #CDCFCC",
"!	c #EBEDEA",
"~	c #F9FBF8",
"{	c #FBFDFA",
"]	c #FCFFFB",
"^	c #FEFFFC",
"........................................",
".^^^^^^^^^^^^^^^^^^^^^^^^^^^^^^^^^^^^^^.",
".^^^^^^^^^^^^^^^^^^^^^^^^^^^^^^^^^^^^^^.",
".^^^^^^^^^^^^^^^^^^^^^^^^^^^^^^^^^^^^^^.",
".^^^^^^^^^^^^^^^^^^^^^^^^^^^^^^^^^^^^^^.",
".^^^^^^^^^^^^)>>>>>>>>>>>,^^^^^^^^^^^^^.",
".^^^^^^^^^^^'@===========$*^^^^^^^^^^^^.",
".^^^^^^^^^^'@!^^^^^^^^^^^~%&^^^^^^^^^^^.",
".^^^^^^^^^'@!^^^^^^^^^^^^^~%&^^^^^^^^^^.",
".^^^^^^^^'@!^^^^^^^^^^^^^^^~%&^^^^^^^^^.",
".^^^^^^^,@!^^^^^^^^^^^^^^^^^~%&^^^^^^^^.",
".^^^^^^,@!^^^^^^^^^^^^^^^^^^^~%&^^^^^^^.",
".^^^^^,#!^^^^^^^^^^^^^^^^^^^^^~%&^^^^^^.",
".^^^^,#!^^^^^^^^^^^^^^^^^^^^^^^~%&^^^^^.",
".^^^^@!^^^^^^^^^^^^^^^^^^^^^^^^^~+^^^^^.",
".^^^^@{^^^^^^^^^^^^^^^^^^^^^^^^^^@^^^^^.",
".^^^^@{^^^^^^^^^^^^^^^^^^^^^^^^^^@^^^^^.",
".^^^^@{^^^^^^^^^^^^^^^^^^^^^^^^^^@^^^^^.",
".^^^^@{^^^^^^^^^^^^^^^^^^^^^^^^^^@^^^^^.",
".^^^^@{^^^^^^^^^^^^^^^^^^^^^^^^^^@^^^^^.",
".^^^^@{^^^^^^^^^^^^^^^^^^^^^^^^^^@^^^^^.",
".^^^^@{^^^^^^^^^^^^^^^^^^^^^^^^^^@^^^^^.",
".^^^^@{^^^^^^^^^^^^^^^^^^^^^^^^^^@^^^^^.",
".^^^^@{^^^^^^^^^^^^^^^^^^^^^^^^^^@^^^^^.",
".^^^^@{^^^^^^^^^^^^^^^^^^^^^^^^^^@^^^^^.",
".^^^^@!^^^^^^^^^^^^^^^^^^^^^^^^^~+^^^^^.",
".^^^^,#!^^^^^^^^^^^^^^^^^^^^^^^~%&^^^^^.",
".^^^^^,#!^^^^^^^^^^^^^^^^^^^^^~%&^^^^^^.",
".^^^^^^,#!^^^^^^^^^^^^^^^^^^^~%&^^^^^^^.",
".^^^^^^^,#!^^^^^^^^^^^^^^^^^~%&^^^^^^^^.",
".^^^^^^^^,#!^^^^^^^^^^^^^^^~%&^^^^^^^^^.",
".^^^^^^^^^,#!^^^^^^^^^^^^^~%&^^^^^^^^^^.",
".^^^^^^^^^^,@!^^^^^^^^^^^~%&^^^^^^^^^^^.",
".^^^^^^^^^^^,@-----------$&^^^^^^^^^^^^.",
".^^^^^^^^^^^^);;;;;;;;;;;,^^^^^^^^^^^^^.",
".^^^^^^^^^^^^^^^^^^^^^^^^^^^^^^^^^^^^^^.",
".^^^^^^^^^^^^^^^^^^^^^^^^^^^^^^^^^^^^^^.",
".^^^^^^^^^^^^^^^^^^^^^^^^^^^^^^^^^^^^^^.",
".^^^^^^^^^^^^^^^^^^^^^^^^^^^^^^^^^^^^^^.",
"........................................"};

