/* XPM */
const char * a16_xpm[] = {
"40 40 21 1",
" 	c None",
".	c #000000",
"+	c #151614",
"@	c #212220",
"#	c #2D2F2C",
"$	c #3A3C39",
"%	c #484A47",
"&	c #545553",
"*	c #60625F",
"=	c #6D6F6C",
"-	c #7A7C79",
";	c #878986",
">	c #959794",
",	c #A1A3A0",
"'	c #B0B2AF",
")	c #BBBDBA",
"!	c #CBCDCA",
"~	c #D7D9D5",
"{	c #E3E5E1",
"]	c #EEF1ED",
"^	c #FDFFFC",
"........................................",
".^^^^^^^^^^^^^^^^^^^^^^^^^^^^^^^^^^^^^^.",
".^^^^^^^^^^^^^^^^^^!;]^^^^^^^^^^^^^^^^^.",
".^^^^^^^^^^^^^^^^]=.#@,^^^^^^^^^^^^^^^^.",
".^^^^^^^^^^^^^^^>+%~^,+$!^^^^^^^^^^^^^^.",
".^^^^^^^^^^^^^)#@'^^^^]-.*{^^^^^^^^^^^^.",
".^^^^^^^^^^^{&+;^^^^^^^^~%+>^^^^^^^^^^^.",
".^^^^^^^^^]-.*{^^^^^^^^^^^'@#)^^^^^^^^^.",
".^^^^^^^^,@$!^^^^^^^^^^^^^^^;+&~^^^^^^^.",
".^^^^^^!$+,^^^^^^^^^^^^^^^^^^{*.-]^^^^^.",
".^^^^]*.=]^^^^^^^^^^^^^^^^^^^^^!$@,^^^^.",
".^^^^&$~^^^^^^^^^^^^^^^^^^^^^^^^^,+)^^^.",
".^^^^%>^^^^^^^^^^^^^^^^^^^^^^^^^^^#'^^^.",
".^^^^%>^^^^^^^^^^^^^^^^^^^^^^^^^^^#'^^^.",
".^^^^%>^^^^^^^^^^^^^^^^^^^^^^^^^^^#'^^^.",
".^^^^%>^^^^^^^^^^^^^^^^^^^^^^^^^^^#'^^^.",
".^^^^%>^^^^^^^^^^^^^^^^^^^^^^^^^^^#'^^^.",
".^^^^%>^^^^^^^^^^^^^^^^^^^^^^^^^^^#'^^^.",
".^^^^%>^^^^^^^^^^^^^^^^^^^^^^^^^^^#'^^^.",
".^^^^%>^^^^^^^^^^^^^^^^^^^^^^^^^^^#'^^^.",
".^^^^%>^^^^^^^^^^^^^^^^^^^^^^^^^^^#'^^^.",
".^^^^%>^^^^^^^^^^^^^^^^^^^^^^^^^^^#'^^^.",
".^^^^%>^^^^^^^^^^^^^^^^^^^^^^^^^^^#'^^^.",
".^^^^%>^^^^^^^^^^^^^^^^^^^^^^^^^^^#'^^^.",
".^^^^%>^^^^^^^^^^^^^^^^^^^^^^^^^^^#'^^^.",
".^^^^%>^^^^^^^^^^^^^^^^^^^^^^^^^^^#'^^^.",
".^^^^%>^^^^^^^^^^^^^^^^^^^^^^^^^^^#'^^^.",
".^^^^%>^^^^^^^^^^^^^^^^^^^^^^^^^^^#'^^^.",
".^^^^=+>^^^^^^^^^^^^^^^^^^^^^^^^{&.!^^^.",
".^^^^^'@#)^^^^^^^^^^^^^^^^^^^^];.&{^^^^.",
".^^^^^^^;.&{^^^^^^^^^^^^^^^^^'@#)^^^^^^.",
".^^^^^^^^{*.-]^^^^^^^^^^^^^~$+>^^^^^^^^.",
".^^^^^^^^^^!$@,^^^^^^^^^^]=.=]^^^^^^^^^.",
".^^^^^^^^^^^^,+$!^^^^^^^>+%~^^^^^^^^^^^.",
".^^^^^^^^^^^^^]=.=]^^^)#@'^^^^^^^^^^^^^.",
".^^^^^^^^^^^^^^^~%+>~&.;]^^^^^^^^^^^^^^.",
".^^^^^^^^^^^^^^^^^'@.*{^^^^^^^^^^^^^^^^.",
".^^^^^^^^^^^^^^^^^^^~^^^^^^^^^^^^^^^^^^.",
".^^^^^^^^^^^^^^^^^^^^^^^^^^^^^^^^^^^^^^.",
"........................................"};

