/* XPM */
const char * a19_xpm[] = {
"40 40 21 1",
" 	c None",
".	c #000000",
"+	c #161616",
"@	c #1E1E1E",
"#	c #2C2C2C",
"$	c #4B4B4B",
"%	c #565656",
"&	c #606060",
"*	c #646464",
"=	c #797979",
"-	c #868686",
";	c #929292",
">	c #9A9A9A",
",	c #A1A1A1",
"'	c #B5B5B5",
")	c #C9C9C9",
"!	c #D6D6D6",
"~	c #E5E5E5",
"{	c #ECECEC",
"]	c #F4F4F4",
"^	c #FFFFFF",
"........................................",
".^^^^^^^^^^^^^^^^^^^^^^^^^^^^^^^^^^^^^^.",
".^^^^^^^^^^^^^^^^^^^^^^^^^^^^^^^^^^^^^^.",
".^^^^^^^^^^^^^^^^^^^^^^^^^^^^^^^^^^^^^^.",
".^^^^^^^^^^^^^^^^^^^^*]^^^^^^^^^^^^^^^^.",
".^^^^^^^^^^^^^^^^^^^^*{^^^^^^^^^^^^^^^^.",
".^^^^^^^^^^^^^^^^^^^^*{^^^^^^^^^^=!^^^^.",
".^^^^^^^^^^^^^^^^^^^^*{^^^^^^^^^*-%]^^^.",
".^^^^^^^^^^^^^^^^^^^^&{^^^^^^^^)@%>=^^^.",
".^^^^^^^^^^^^^^^^^^^^&{^^^^^^^~,#$!]^^^.",
".^^^^^^^^^^^^^^^^^^^^&{^^^^^^{=#>!^^^^^.",
".^^^^^^^^^^^^^^^^^^^^&{^^^^^~;#;~^^^^^^.",
".^^^^^^^^^^^^^^^^^^^^*{^^^^^-@*~^^^^^^^.",
".^^^^^^^^^^^^^^^^^^^^*{^^^^'=;~^^^^^^^^.",
".^^^^^^^^^^^^^^^^^^^^&{^^^,&;]^^^^^^^^^.",
".^^^^^^^^^^^^^^^^^^^^&{^^',;^^^^^^^^^^^.",
".^^^^^^^^^^^^^^^^^^^^*{^^>{^^^^^^^^^^^^.",
".^^^^^^^^^^^^^^^^^^^^;]^),^^^^^^^^^^^^^.",
".^^^^^^^^^^^^^^^^^^^^^^]'^^^^^^^^^^^^^^.",
".^]{{{{{{{{{{{{{]~^^^^^^^^^^^^^^^^^^^^^.",
".^%@@@@@@@@@@@@@-{^^^^^^)%%%%%%%%%%%%%^.",
".^]{{{{{{{{{{{{{]{^^^^^^!,,,,,,,,,,,,,^.",
".^^^^^^^^^^^^^^^^^~;^^^^^^^^^^^^^^^^^^^.",
".^^^^^^^^^^^^^^^^~~~^^^^^^^^^^^^^^^^^^^.",
".^^^^^^^^^^^^^^^)>]^^*{^^^^^^^^^^^^^^^^.",
".^^^^^^^^^^^^^^)##~^^&{^^^^^^^^^^^^^^^^.",
".^^^^^^^^^^^^^]$#!^^^&{^^^^^^^^^^^^^^^^.",
".^^^^^^^^^^^^)$+>^^^^&{^^^^^^^^^^^^^^^^.",
".^^^^^^^^^^^'#+-^^^^^&{^^^^^^^^^^^^^^^^.",
".^^^^^^^^^]-@+${^^^^^&{^^^^^^^^^^^^^^^^.",
".^^^^^^^^~*++${^^^^^^&{^^^^^^^^^^^^^^^^.",
".^^^^^^^!$++@)^^^^^^^&{^^^^^^^^^^^^^^^^.",
".^^^^^^!@++@)^^^^^^^^&{^^^^^^^^^^^^^^^^.",
".^^^^^^^=++=^^^^^^^^^&{^^^^^^^^^^^^^^^^.",
".^^^^^^^]%-]^^^^^^^^^&{^^^^^^^^^^^^^^^^.",
".^^^^^^^^^^^^^^^^^^^^&{^^^^^^^^^^^^^^^^.",
".^^^^^^^^^^^^^^^^^^^^*{^^^^^^^^^^^^^^^^.",
".^^^^^^^^^^^^^^^^^^^^^{^^^^^^^^^^^^^^^^.",
".^^^^^^^^^^^^^^^^^^^^^{^^^^^^^^^^^^^^^^.",
"........................................"};

